<mxfile host="app.diagrams.net" modified="2021-04-15T01:37:36.279Z" agent="5.0 (Windows NT 10.0; Win64; x64) AppleWebKit/537.36 (KHTML, like Gecko) Chrome/89.0.4389.128 Safari/537.36" etag="Q1u53wltnCLnhYXC0Qeq" version="14.5.10" type="github">
  <diagram id="n4didfeKruxiTnD89LsK" name="Page-1">
    <mxGraphModel dx="1504" dy="645" grid="1" gridSize="10" guides="1" tooltips="1" connect="1" arrows="1" fold="1" page="1" pageScale="1" pageWidth="827" pageHeight="1169" math="0" shadow="0">
      <root>
        <mxCell id="0" />
        <mxCell id="1" parent="0" />
        <mxCell id="9Qdctumlg8V-Mv955v93-2" value="Logging in" style="shape=umlFrame;whiteSpace=wrap;html=1;width=80;height=20;" parent="1" vertex="1">
          <mxGeometry x="14" y="90" width="800" height="950" as="geometry" />
        </mxCell>
        <mxCell id="9Qdctumlg8V-Mv955v93-1" value="loginButton: JButton" style="shape=umlLifeline;perimeter=lifelinePerimeter;whiteSpace=wrap;html=1;container=1;collapsible=0;recursiveResize=0;outlineConnect=0;" parent="1" vertex="1">
          <mxGeometry x="44" y="159" width="100" height="881" as="geometry" />
        </mxCell>
        <mxCell id="9Qdctumlg8V-Mv955v93-7" value="" style="html=1;points=[];perimeter=orthogonalPerimeter;" parent="9Qdctumlg8V-Mv955v93-1" vertex="1">
          <mxGeometry x="44" y="70" width="10" height="720" as="geometry" />
        </mxCell>
        <mxCell id="9Qdctumlg8V-Mv955v93-3" value=":MouseListener" style="shape=umlLifeline;perimeter=lifelinePerimeter;whiteSpace=wrap;html=1;container=1;collapsible=0;recursiveResize=0;outlineConnect=0;" parent="1" vertex="1">
          <mxGeometry x="164" y="159" width="100" height="881" as="geometry" />
        </mxCell>
        <mxCell id="9Qdctumlg8V-Mv955v93-10" value="" style="html=1;points=[];perimeter=orthogonalPerimeter;" parent="9Qdctumlg8V-Mv955v93-3" vertex="1">
          <mxGeometry x="45" y="81" width="10" height="519" as="geometry" />
        </mxCell>
        <mxCell id="9Qdctumlg8V-Mv955v93-5" value="ac: AttendantConsole" style="shape=umlLifeline;perimeter=lifelinePerimeter;whiteSpace=wrap;html=1;container=1;collapsible=0;recursiveResize=0;outlineConnect=0;" parent="1" vertex="1">
          <mxGeometry x="284" y="159" width="100" height="881" as="geometry" />
        </mxCell>
        <mxCell id="9Qdctumlg8V-Mv955v93-16" value="" style="html=1;points=[];perimeter=orthogonalPerimeter;" parent="9Qdctumlg8V-Mv955v93-5" vertex="1">
          <mxGeometry x="45" y="91" width="10" height="79" as="geometry" />
        </mxCell>
        <mxCell id="9Qdctumlg8V-Mv955v93-27" value="" style="html=1;points=[];perimeter=orthogonalPerimeter;fontSize=12;" parent="9Qdctumlg8V-Mv955v93-5" vertex="1">
          <mxGeometry x="45" y="201" width="10" height="80" as="geometry" />
        </mxCell>
        <mxCell id="9Qdctumlg8V-Mv955v93-6" value=":ControlPanel" style="shape=umlLifeline;perimeter=lifelinePerimeter;whiteSpace=wrap;html=1;container=1;collapsible=0;recursiveResize=0;outlineConnect=0;" parent="1" vertex="1">
          <mxGeometry x="534" y="159" width="100" height="881" as="geometry" />
        </mxCell>
        <mxCell id="Ku_I7ETEcBUIGVNY8Nli-1" value="" style="html=1;points=[];perimeter=orthogonalPerimeter;" vertex="1" parent="9Qdctumlg8V-Mv955v93-6">
          <mxGeometry x="45" y="301" width="10" height="54" as="geometry" />
        </mxCell>
        <mxCell id="Ku_I7ETEcBUIGVNY8Nli-5" value="" style="html=1;points=[];perimeter=orthogonalPerimeter;" vertex="1" parent="9Qdctumlg8V-Mv955v93-6">
          <mxGeometry x="45" y="381" width="10" height="39" as="geometry" />
        </mxCell>
        <mxCell id="9Qdctumlg8V-Mv955v93-9" value="return" style="html=1;verticalAlign=bottom;endArrow=open;dashed=1;endSize=8;exitX=0.04;exitY=0.988;entryX=0;entryY=0.897;entryDx=0;entryDy=0;entryPerimeter=0;exitDx=0;exitDy=0;exitPerimeter=0;" parent="1" source="9Qdctumlg8V-Mv955v93-7" target="9Qdctumlg8V-Mv955v93-2" edge="1">
          <mxGeometry relative="1" as="geometry">
            <mxPoint x="18" y="286" as="targetPoint" />
          </mxGeometry>
        </mxCell>
        <mxCell id="9Qdctumlg8V-Mv955v93-8" value="user clicks login button" style="html=1;verticalAlign=bottom;endArrow=block;entryX=0;entryY=0;" parent="1" target="9Qdctumlg8V-Mv955v93-7" edge="1">
          <mxGeometry x="0.3514" relative="1" as="geometry">
            <mxPoint x="14" y="229" as="sourcePoint" />
            <mxPoint as="offset" />
          </mxGeometry>
        </mxCell>
        <mxCell id="9Qdctumlg8V-Mv955v93-11" value="mouseClicked" style="html=1;verticalAlign=bottom;endArrow=block;entryX=0;entryY=0;exitX=1.6;exitY=0.018;exitDx=0;exitDy=0;exitPerimeter=0;" parent="1" source="9Qdctumlg8V-Mv955v93-7" target="9Qdctumlg8V-Mv955v93-10" edge="1">
          <mxGeometry relative="1" as="geometry">
            <mxPoint x="139" y="240" as="sourcePoint" />
          </mxGeometry>
        </mxCell>
        <mxCell id="9Qdctumlg8V-Mv955v93-12" value="return" style="html=1;verticalAlign=bottom;endArrow=open;dashed=1;endSize=8;exitX=0.02;exitY=0.995;exitDx=0;exitDy=0;exitPerimeter=0;" parent="1" source="9Qdctumlg8V-Mv955v93-10" target="9Qdctumlg8V-Mv955v93-7" edge="1">
          <mxGeometry relative="1" as="geometry">
            <mxPoint x="139" y="316" as="targetPoint" />
          </mxGeometry>
        </mxCell>
        <mxCell id="9Qdctumlg8V-Mv955v93-15" value=":EmployeeDatabase" style="shape=umlLifeline;perimeter=lifelinePerimeter;whiteSpace=wrap;html=1;container=1;collapsible=0;recursiveResize=0;outlineConnect=0;" parent="1" vertex="1">
          <mxGeometry x="404" y="159" width="110" height="881" as="geometry" />
        </mxCell>
        <mxCell id="9Qdctumlg8V-Mv955v93-19" value="" style="html=1;points=[];perimeter=orthogonalPerimeter;" parent="9Qdctumlg8V-Mv955v93-15" vertex="1">
          <mxGeometry x="50" y="111" width="10" height="20" as="geometry" />
        </mxCell>
        <mxCell id="9Qdctumlg8V-Mv955v93-17" value="VerifyLogin" style="html=1;verticalAlign=bottom;endArrow=block;entryX=0;entryY=0;exitX=1.06;exitY=0.02;exitDx=0;exitDy=0;exitPerimeter=0;" parent="1" source="9Qdctumlg8V-Mv955v93-10" target="9Qdctumlg8V-Mv955v93-16" edge="1">
          <mxGeometry relative="1" as="geometry">
            <mxPoint x="259" y="250" as="sourcePoint" />
          </mxGeometry>
        </mxCell>
        <mxCell id="9Qdctumlg8V-Mv955v93-18" value="returns isValid" style="html=1;verticalAlign=bottom;endArrow=open;dashed=1;endSize=8;exitX=0;exitY=0.95;entryX=0.5;entryY=0.166;entryDx=0;entryDy=0;entryPerimeter=0;" parent="1" source="9Qdctumlg8V-Mv955v93-16" target="9Qdctumlg8V-Mv955v93-10" edge="1">
          <mxGeometry relative="1" as="geometry">
            <mxPoint x="259" y="326" as="targetPoint" />
          </mxGeometry>
        </mxCell>
        <mxCell id="9Qdctumlg8V-Mv955v93-20" value="dispatch" style="html=1;verticalAlign=bottom;endArrow=block;entryX=0;entryY=0;exitX=1.22;exitY=0.192;exitDx=0;exitDy=0;exitPerimeter=0;" parent="1" source="9Qdctumlg8V-Mv955v93-16" target="9Qdctumlg8V-Mv955v93-19" edge="1">
          <mxGeometry relative="1" as="geometry">
            <mxPoint x="384" y="250" as="sourcePoint" />
          </mxGeometry>
        </mxCell>
        <mxCell id="9Qdctumlg8V-Mv955v93-21" value="" style="html=1;verticalAlign=bottom;endArrow=open;dashed=1;endSize=8;exitX=0;exitY=0.95;entryX=1.06;entryY=0.502;entryDx=0;entryDy=0;entryPerimeter=0;" parent="1" source="9Qdctumlg8V-Mv955v93-19" target="9Qdctumlg8V-Mv955v93-16" edge="1">
          <mxGeometry relative="1" as="geometry">
            <mxPoint x="384" y="326" as="targetPoint" />
          </mxGeometry>
        </mxCell>
        <mxCell id="9Qdctumlg8V-Mv955v93-22" value="if isValid" style="text;html=1;strokeColor=none;fillColor=none;align=center;verticalAlign=middle;whiteSpace=wrap;rounded=0;fontStyle=1;fontSize=15;" parent="1" vertex="1">
          <mxGeometry x="104" y="360" width="80" height="20" as="geometry" />
        </mxCell>
        <mxCell id="9Qdctumlg8V-Mv955v93-24" style="edgeStyle=orthogonalEdgeStyle;rounded=0;orthogonalLoop=1;jettySize=auto;html=1;exitX=0;exitY=0;exitDx=0;exitDy=0;" parent="1" edge="1">
          <mxGeometry relative="1" as="geometry">
            <mxPoint x="174" y="534.5" as="sourcePoint" />
            <mxPoint x="174" y="534.5" as="targetPoint" />
          </mxGeometry>
        </mxCell>
        <mxCell id="9Qdctumlg8V-Mv955v93-25" value="" style="endArrow=none;html=1;exitX=-0.002;exitY=0.591;exitDx=0;exitDy=0;exitPerimeter=0;entryX=0.999;entryY=0.591;entryDx=0;entryDy=0;entryPerimeter=0;" parent="1" source="9Qdctumlg8V-Mv955v93-4" target="9Qdctumlg8V-Mv955v93-4" edge="1">
          <mxGeometry width="50" height="50" relative="1" as="geometry">
            <mxPoint x="394" y="560" as="sourcePoint" />
            <mxPoint x="444" y="510" as="targetPoint" />
          </mxGeometry>
        </mxCell>
        <mxCell id="9Qdctumlg8V-Mv955v93-26" value="else" style="text;html=1;strokeColor=none;fillColor=none;align=center;verticalAlign=middle;whiteSpace=wrap;rounded=0;fontStyle=1;fontSize=15;" parent="1" vertex="1">
          <mxGeometry x="104" y="574.5" width="80" height="20" as="geometry" />
        </mxCell>
        <mxCell id="9Qdctumlg8V-Mv955v93-28" value="getAttendantName()" style="html=1;verticalAlign=bottom;endArrow=block;entryX=0;entryY=0;fontSize=11;" parent="1" target="9Qdctumlg8V-Mv955v93-27" edge="1">
          <mxGeometry relative="1" as="geometry">
            <mxPoint x="224" y="360" as="sourcePoint" />
          </mxGeometry>
        </mxCell>
        <mxCell id="9Qdctumlg8V-Mv955v93-29" value="" style="html=1;verticalAlign=bottom;endArrow=open;dashed=1;endSize=8;exitX=0;exitY=0.95;fontSize=11;entryX=1.06;entryY=0.377;entryDx=0;entryDy=0;entryPerimeter=0;" parent="1" source="9Qdctumlg8V-Mv955v93-27" target="9Qdctumlg8V-Mv955v93-10" edge="1">
          <mxGeometry relative="1" as="geometry">
            <mxPoint x="259" y="436" as="targetPoint" />
          </mxGeometry>
        </mxCell>
        <mxCell id="Ku_I7ETEcBUIGVNY8Nli-2" value="update labels" style="html=1;verticalAlign=bottom;endArrow=block;entryX=0;entryY=0;exitX=1.16;exitY=0.418;exitDx=0;exitDy=0;exitPerimeter=0;" edge="1" target="Ku_I7ETEcBUIGVNY8Nli-1" parent="1" source="9Qdctumlg8V-Mv955v93-10">
          <mxGeometry relative="1" as="geometry">
            <mxPoint x="509" y="460" as="sourcePoint" />
          </mxGeometry>
        </mxCell>
        <mxCell id="Ku_I7ETEcBUIGVNY8Nli-3" value="" style="html=1;verticalAlign=bottom;endArrow=open;dashed=1;endSize=8;exitX=0;exitY=0.95;" edge="1" source="Ku_I7ETEcBUIGVNY8Nli-1" parent="1" target="9Qdctumlg8V-Mv955v93-10">
          <mxGeometry relative="1" as="geometry">
            <mxPoint x="509" y="536" as="targetPoint" />
          </mxGeometry>
        </mxCell>
        <mxCell id="Ku_I7ETEcBUIGVNY8Nli-4" value=":JOptionPane" style="shape=umlLifeline;perimeter=lifelinePerimeter;whiteSpace=wrap;html=1;container=1;collapsible=0;recursiveResize=0;outlineConnect=0;" vertex="1" parent="1">
          <mxGeometry x="654" y="159" width="100" height="881" as="geometry" />
        </mxCell>
        <mxCell id="Ku_I7ETEcBUIGVNY8Nli-8" value="" style="html=1;points=[];perimeter=orthogonalPerimeter;" vertex="1" parent="Ku_I7ETEcBUIGVNY8Nli-4">
          <mxGeometry x="45" y="506" width="10" height="80" as="geometry" />
        </mxCell>
        <mxCell id="Ku_I7ETEcBUIGVNY8Nli-6" value="display attendantConsole" style="html=1;verticalAlign=bottom;endArrow=block;entryX=0;entryY=0;" edge="1" target="Ku_I7ETEcBUIGVNY8Nli-5" parent="1" source="9Qdctumlg8V-Mv955v93-10">
          <mxGeometry relative="1" as="geometry">
            <mxPoint x="509" y="540" as="sourcePoint" />
          </mxGeometry>
        </mxCell>
        <mxCell id="Ku_I7ETEcBUIGVNY8Nli-7" value="" style="html=1;verticalAlign=bottom;endArrow=open;dashed=1;endSize=8;exitX=0;exitY=0.95;entryX=0.9;entryY=0.655;entryDx=0;entryDy=0;entryPerimeter=0;" edge="1" source="Ku_I7ETEcBUIGVNY8Nli-5" parent="1" target="9Qdctumlg8V-Mv955v93-10">
          <mxGeometry relative="1" as="geometry">
            <mxPoint x="509" y="616" as="targetPoint" />
          </mxGeometry>
        </mxCell>
        <mxCell id="Ku_I7ETEcBUIGVNY8Nli-9" value="Display errorMessage" style="html=1;verticalAlign=bottom;endArrow=block;entryX=0;entryY=0;exitX=0.9;exitY=0.812;exitDx=0;exitDy=0;exitPerimeter=0;" edge="1" target="Ku_I7ETEcBUIGVNY8Nli-8" parent="1" source="9Qdctumlg8V-Mv955v93-10">
          <mxGeometry relative="1" as="geometry">
            <mxPoint x="629" y="631" as="sourcePoint" />
          </mxGeometry>
        </mxCell>
        <mxCell id="Ku_I7ETEcBUIGVNY8Nli-10" value="" style="html=1;verticalAlign=bottom;endArrow=open;dashed=1;endSize=8;exitX=0;exitY=0.95;entryX=0.9;entryY=0.966;entryDx=0;entryDy=0;entryPerimeter=0;" edge="1" source="Ku_I7ETEcBUIGVNY8Nli-8" parent="1" target="9Qdctumlg8V-Mv955v93-10">
          <mxGeometry relative="1" as="geometry">
            <mxPoint x="629" y="707" as="targetPoint" />
          </mxGeometry>
        </mxCell>
        <mxCell id="9Qdctumlg8V-Mv955v93-4" value="info Check" style="shape=umlFrame;whiteSpace=wrap;html=1;width=80;height=20;" parent="1" vertex="1">
          <mxGeometry x="44" y="330" width="750" height="500" as="geometry" />
        </mxCell>
      </root>
    </mxGraphModel>
  </diagram>
</mxfile>
